<svg width="150" height="65" viewBox="0 0 228 65" fill="none" xmlns="http://www.w3.org/2000/svg">
<path d="M60.12 61.672C59.0533 61.672 58.008 61.5867 56.984 61.416C52.8453 60.776 49.3253 59.1973 46.424 56.68C43.5227 54.2053 41.432 51.112 40.152 47.4C36.1413 49.064 31.8107 49.896 27.16 49.896C19.48 49.896 13.1867 47.72 8.28 43.368C3.37333 39.016 0.92 33.4267 0.92 26.6C0.92 22.0347 2.02933 17.9813 4.248 14.44C6.50933 10.8987 9.66667 8.168 13.72 6.248C17.7733 4.28533 22.4027 3.304 27.608 3.304C31.0213 3.304 34.328 3.64533 37.528 4.328C40.728 4.968 43.3093 5.77866 45.272 6.76L45.4 17.768H44.888C43.864 13.8853 41.88 10.9627 38.936 9C36.0347 6.99466 32.536 5.992 28.44 5.992C23.4053 5.992 19.288 7.93333 16.088 11.816C12.9307 15.656 11.352 20.6267 11.352 26.728C11.352 32.7867 12.9093 37.7147 16.024 41.512C19.1387 45.3093 23.1493 47.208 28.056 47.208C30.7013 47.208 32.984 46.632 34.904 45.48C36.8667 44.328 38.1893 42.792 38.872 40.872V31.144C38.872 30.2053 38.5947 29.48 38.04 28.968C37.4853 28.456 36.696 28.2 35.672 28.2H34.648V27.56H52.632V28.2H51.672C50.6053 28.2 49.7947 28.456 49.24 28.968C48.6853 29.48 48.4293 30.184 48.472 31.08V41.256C48.5147 44.072 49.048 46.696 50.072 49.128C52.3333 54.3333 56.088 57.576 61.336 58.856C62.744 59.1973 64.1947 59.368 65.688 59.368C67.224 59.368 68.7813 59.1973 70.36 58.856L70.488 59.496C66.8187 60.9467 63.3627 61.672 60.12 61.672ZM107.969 57.896C112.406 57.896 115.99 57.0213 118.721 55.272L119.169 55.784C115.499 60.8613 110.934 63.6773 105.473 64.232C104.321 64.36 103.318 64.424 102.465 64.424C101.654 64.424 100.694 64.3813 99.5845 64.296C98.5178 64.2533 97.0032 63.976 95.0405 63.464C93.0778 62.952 91.3498 62.4187 89.8565 61.864C88.3632 61.352 86.6352 60.648 84.6725 59.752C82.7098 58.8987 81.0885 58.1307 79.8085 57.448C78.5285 56.808 76.9925 56.0187 75.2005 55.08C73.4512 54.184 71.9152 53.416 70.5925 52.776C69.2698 52.136 67.9898 51.5813 66.7525 51.112C63.2538 49.704 59.6698 49 56.0005 49V48.36H56.8325C57.9418 48.36 58.8805 47.976 59.6485 47.208C60.4592 46.44 60.8858 45.48 60.9285 44.328V8.872C60.8858 7.72 60.4592 6.76 59.6485 5.992C58.8805 5.224 57.9418 4.84 56.8325 4.84H56.0005V4.2H75.4565L75.3925 4.84H74.7525C73.1312 4.84 71.9152 5.50133 71.1045 6.824C70.7205 7.42133 70.5285 8.104 70.5285 8.872V45.992C70.5285 47.4 70.8058 48.3813 71.3605 48.936C71.9152 49.448 72.5338 49.8107 73.2165 50.024C89.2592 55.272 100.843 57.896 107.969 57.896ZM101.373 20.392C100.605 18.7707 100.221 17.2347 100.221 15.784C100.221 14.2907 100.413 12.9253 100.797 11.688C101.181 10.408 101.821 9.17066 102.717 7.976C103.613 6.73867 104.872 5.71467 106.493 4.904C108.712 3.752 111.378 3.176 114.493 3.176C118.589 3.176 122.472 4.22133 126.141 6.312C130.962 9.04266 134.312 12.8187 136.189 17.64C137.256 20.2853 137.789 23.1227 137.789 26.152C137.789 33.2773 135.208 39.016 130.045 43.368C124.925 47.72 118.226 49.896 109.949 49.896C101.714 49.896 94.9943 47.72 89.789 43.368C84.6263 39.016 82.045 33.2987 82.045 26.216C82.045 20.9253 83.5383 16.3387 86.525 12.456C89.5543 8.53066 93.629 5.864 98.749 4.456L99.133 5.032C96.957 6.86666 95.3143 9.55466 94.205 13.096C93.0957 16.6373 92.541 20.456 92.541 24.552C92.541 31.464 94.141 36.968 97.341 41.064C100.541 45.16 104.722 47.208 109.885 47.208C115.09 47.208 119.272 45.288 122.429 41.448C125.629 37.5653 127.229 32.4453 127.229 26.088C127.229 22.248 126.632 18.792 125.437 15.72C124.285 12.6053 122.6 10.216 120.381 8.552C118.162 6.84533 115.688 5.992 112.957 5.992C109.928 5.992 107.474 6.78133 105.597 8.36C102.952 10.6213 101.629 13.5013 101.629 17C101.629 18.1093 101.778 19.24 102.077 20.392H101.373ZM208.315 59.88C204.987 61.544 201.446 62.376 197.691 62.376C194.363 62.376 191.334 61.864 188.603 60.84C182.715 58.664 177.702 54.4187 173.563 48.104C172.496 46.568 170.512 43.624 167.611 39.272C164.71 34.92 162.832 32.1467 161.979 30.952C160.486 28.6053 159.291 27.3253 158.395 27.112V26.472C158.438 26.472 158.48 26.472 158.523 26.472C158.608 26.472 158.694 26.472 158.779 26.472C158.864 26.472 158.95 26.472 159.035 26.472C159.12 26.472 159.227 26.472 159.355 26.472C159.483 26.472 159.59 26.472 159.675 26.472C161.851 26.472 163.856 25.9813 165.691 25C168.464 23.464 169.851 20.6267 169.851 16.488C169.851 13.4587 168.998 11.1333 167.291 9.512C165.584 7.848 163.536 7.016 161.147 7.016H156.283V44.328C156.283 45.4373 156.688 46.3973 157.499 47.208C158.31 47.976 159.27 48.36 160.379 48.36H161.211V49H141.755V48.36H142.587C143.654 48.36 144.592 47.976 145.403 47.208C146.214 46.44 146.64 45.5013 146.683 44.392V8.872C146.64 7.76266 146.214 6.824 145.403 6.056C144.635 5.24533 143.696 4.84 142.587 4.84H141.755V4.2H163.707C169.211 4.2 173.478 5.45866 176.507 7.976C178.896 9.93866 180.091 12.712 180.091 16.296C180.091 19.88 178.918 22.8027 176.571 25.064C174.267 27.2827 171.622 28.392 168.635 28.392C168.379 28.392 168.102 28.3707 167.803 28.328C169.552 29.2667 171.003 30.312 172.155 31.464C173.35 32.616 174.374 33.704 175.227 34.728C176.123 35.752 176.87 36.6693 177.467 37.48C178.107 38.248 178.939 39.2933 179.963 40.616C180.987 41.896 182.054 43.24 183.163 44.648C184.272 46.056 185.488 47.5067 186.811 49C188.176 50.4507 189.67 51.8373 191.291 53.16C192.955 54.4827 194.64 55.5707 196.347 56.424C199.974 58.2587 203.963 59.1973 208.315 59.24V59.88ZM178.274 0.487999C178.957 0.44533 180.045 0.423996 181.538 0.423996C182.989 0.423996 184.909 0.743997 187.299 1.384C189.731 1.98133 191.971 2.94133 194.019 4.264C196.067 5.58666 197.944 7.18666 199.651 9.064C202.808 12.5627 205.283 16.7653 207.075 21.672C209.635 14.376 212.963 8.78666 217.059 4.904C220.173 1.96 223.608 0.487999 227.363 0.487999C227.533 0.487999 227.704 0.487999 227.875 0.487999V1.128C225.741 1.17066 223.523 2.30133 221.219 4.52C218.957 6.696 216.973 9.34133 215.267 12.456C213.56 15.5707 212.109 18.8133 210.915 22.184C209.763 25.5547 209.08 28.4773 208.867 30.952V44.328C208.867 45.3947 209.251 46.3333 210.019 47.144C210.829 47.9547 211.811 48.36 212.963 48.36H213.795V49H194.339V48.36H195.171C196.28 48.36 197.219 47.976 197.987 47.208C198.797 46.3973 199.224 45.4373 199.267 44.328V30.888C198.755 26.28 197.219 21.3947 194.659 16.232C191.715 10.2587 188.408 6.01333 184.739 3.496C182.605 2.00266 180.45 1.21333 178.274 1.128V0.487999Z" fill="black"/>
</svg>
